<?xml version="1.0" standalone="no"?>
<!DOCTYPE svg PUBLIC "-//W3C//DTD SVG 20010904//EN"
 "http://www.w3.org/TR/2001/REC-SVG-20010904/DTD/svg10.dtd">
<svg version="1.0" xmlns="http://www.w3.org/2000/svg"
 width="348.000000pt" height="348.000000pt" viewBox="0 0 348.000000 348.000000"
 preserveAspectRatio="xMidYMid meet">

<g transform="translate(0.000000,348.000000) scale(0.100000,-0.100000)"
fill="#000000" stroke="none">
<path d="M985 2781 c-49 -23 -339 -313 -355 -356 -15 -38 -15 -117 0 -147 7
-13 148 -159 313 -325 l302 -303 -302 -302 c-165 -167 -306 -313 -313 -326
-14 -29 -15 -108 0 -147 14 -39 303 -330 352 -356 44 -22 106 -25 151 -5 18 8
165 147 327 310 162 163 299 296 305 296 6 0 143 -133 305 -296 162 -163 309
-302 327 -310 42 -18 95 -18 141 1 42 18 334 302 359 350 19 35 21 121 3 155
-6 14 -148 161 -313 328 l-302 302 302 303 c165 166 307 313 313 327 20 39 16
123 -8 162 -11 18 -90 101 -174 185 -169 167 -194 182 -285 169 -47 -7 -54
-13 -353 -312 -168 -167 -310 -304 -315 -304 -5 0 -147 137 -315 304 -317 315
-319 316 -399 316 -14 0 -44 -9 -66 -19z"/>
</g>
</svg>
