<?xml version="1.0" standalone="no"?>
<!DOCTYPE svg PUBLIC "-//W3C//DTD SVG 20010904//EN"
 "http://www.w3.org/TR/2001/REC-SVG-20010904/DTD/svg10.dtd">
<svg version="1.0" xmlns="http://www.w3.org/2000/svg"
 width="398.000000pt" height="421.000000pt" viewBox="0 0 398.000000 421.000000"
 preserveAspectRatio="xMidYMid meet">

<g transform="translate(0.000000,421.000000) scale(0.100000,-0.100000)"
fill="#000000" stroke="none">
<path d="M1274 3077 c-3 -8 -4 -34 -2 -58 l3 -44 97 -3 c62 -2 100 -7 107 -15
6 -8 11 -90 11 -215 l2 -202 -34 -27 c-18 -15 -93 -80 -167 -143 -234 -202
-295 -251 -338 -273 -41 -20 -44 -20 -79 -4 -20 10 -39 27 -42 39 -3 11 -16
41 -29 65 -42 80 -27 116 76 181 42 26 85 52 96 58 22 13 26 35 7 42 -7 2 -10
-2 -7 -10 4 -9 -9 -22 -34 -36 -22 -13 -63 -38 -92 -57 -60 -41 -63 -42 -48
-12 21 40 52 67 131 114 72 43 99 73 63 73 -8 0 -15 -6 -15 -12 0 -14 -88 -78
-107 -78 -27 0 -71 -53 -91 -107 -23 -65 -34 -150 -21 -159 5 -3 6 -16 3 -29
-8 -31 11 -88 38 -111 11 -11 24 -30 29 -43 8 -19 14 -22 39 -18 16 4 32 2 36
-4 10 -16 34 2 387 289 104 85 191 151 194 148 11 -11 2 -660 -9 -673 -7 -9
-42 -13 -109 -13 l-99 0 0 -55 0 -55 389 0 c452 0 517 7 646 70 189 92 297
251 341 503 16 90 15 277 -2 335 -13 43 -62 24 -185 -75 l-65 -52 -11 -158
c-18 -247 -66 -367 -177 -438 -77 -49 -144 -66 -288 -72 -108 -5 -131 -3 -153
11 l-25 16 1 308 c1 297 1 304 15 219 21 -139 53 -187 123 -187 39 0 114 40
186 101 28 23 104 85 170 137 66 53 125 101 130 108 11 13 177 125 213 143 13
7 29 10 37 8 8 -4 11 1 8 12 -7 28 27 35 57 13 14 -11 33 -41 44 -68 45 -116
91 -199 134 -241 67 -66 111 -84 222 -93 56 -5 116 -16 147 -29 67 -26 138
-32 138 -11 0 8 6 19 13 23 7 5 9 13 5 20 -13 21 -10 47 5 47 31 0 -1 29 -141
124 -80 56 -189 132 -242 170 -53 37 -98 66 -101 64 -2 -3 52 -45 121 -94 69
-49 148 -105 175 -125 51 -37 140 -116 140 -124 0 -17 -48 2 -116 45 -74 47
-74 44 1 -17 l30 -25 -56 4 c-45 4 -76 15 -154 59 -161 89 -283 220 -309 332
-12 51 -86 79 -146 54 -11 -5 -26 12 -55 59 -72 118 -208 222 -340 260 -86 24
-912 34 -921 11z m858 -126 c20 -6 58 -26 85 -44 58 -39 102 -120 134 -247
l21 -84 -123 -121 c-128 -124 -324 -269 -356 -263 -23 4 -45 66 -79 213 -25
113 -49 175 -66 175 -12 0 -10 348 3 371 10 20 18 20 177 16 92 -2 184 -9 204
-16z m563 -257 c20 -20 45 -69 79 -154 22 -55 23 -61 6 -40 -11 14 -27 47 -36
73 -24 72 -67 117 -113 117 -27 0 -32 3 -21 10 23 15 67 12 85 -6z m-948 -146
c-3 -8 -6 -5 -6 6 -1 11 2 17 5 13 3 -3 4 -12 1 -19z m493 -161 c-132 -130
-313 -267 -352 -267 -14 0 -48 45 -48 62 0 2 18 2 39 0 61 -6 108 25 405 270
45 37 83 67 86 67 3 0 -56 -59 -130 -132z m-747 96 c-3 -10 -36 -42 -74 -72
-38 -29 -131 -108 -207 -175 -184 -162 -231 -200 -269 -220 -30 -15 -34 -15
-70 6 -21 12 -39 22 -41 23 -1 1 -7 18 -12 36 l-10 34 23 -29 c18 -21 29 -28
45 -24 12 4 25 2 28 -3 3 -5 9 -9 13 -9 8 0 183 137 420 328 84 67 154 122
156 122 2 0 1 -8 -2 -17z m1755 -216 c113 -37 116 -51 7 -42 -87 7 -171 30
-209 58 -32 23 118 11 202 -16z"/>
<path d="M2935 2536 c17 -15 71 -54 120 -87 50 -33 77 -49 60 -35 -16 14 -70
53 -120 87 -49 33 -76 49 -60 35z"/>
</g>
</svg>
